<svg width="64" height="64" viewBox="0 -5 50 40" fill="none" xmlns="http://www.w3.org/2000/svg">
<rect width="38" height="38" rx="30" x="6" y="-5" fill="#50AF95"/>
<path fill-rule="evenodd" clip-rule="evenodd" d="M18.6618 6.08545L15.015 13.7456C15.0011 13.7741 14.9967 13.8063 15.0024 13.8375C15.0082 13.8686 15.0237 13.8971 15.0468 13.9188L24.896 23.3567C24.924 23.3835 24.9612 23.3985 25 23.3985C25.0388 23.3985 25.076 23.3835 25.104 23.3567L34.9532 13.9194C34.9763 13.8977 34.9918 13.8692 34.9975 13.838C35.0033 13.8069 34.9988 13.7747 34.985 13.7462L31.3381 6.08604C31.3263 6.06031 31.3075 6.03852 31.2836 6.02327C31.2598 6.00801 31.2321 5.99994 31.2039 6.00001H18.7973C18.7689 5.99966 18.741 6.00754 18.7169 6.0227C18.6929 6.03786 18.6738 6.05965 18.6618 6.08545Z" fill="white"/>
<path fill-rule="evenodd" clip-rule="evenodd" d="M26.2655 14.5326C26.1948 14.5379 25.8294 14.5596 25.0145 14.5596C24.3663 14.5596 23.9061 14.5402 23.7446 14.5326C21.2398 14.4224 19.3701 13.9863 19.3701 13.4643C19.3701 12.9422 21.2398 12.5067 23.7446 12.3948V14.0983C23.9085 14.1101 24.3775 14.1378 25.0257 14.1378C25.8034 14.1378 26.1929 14.1053 26.263 14.0989V12.396C28.7627 12.5073 30.6281 12.9434 30.6281 13.4643C30.6281 13.9851 28.7633 14.4212 26.263 14.532L26.2655 14.5326ZM26.2655 12.2198V10.6954H29.7538V8.37085H20.2563V10.6954H23.7441V12.2192C20.9092 12.3494 18.7773 12.911 18.7773 13.5839C18.7773 14.2568 20.9092 14.8177 23.7441 14.9486V19.8334H26.2649V14.9468C29.0932 14.8166 31.2215 14.2556 31.2215 13.5833C31.2215 12.911 29.095 12.35 26.2649 12.2192L26.2655 12.2198Z" fill="#50AF95"/>
</svg>
