<!-- icon666.com - MILLIONS OF FREE VECTOR ICONS --><svg id="Layer_1" enable-background="new 0 0 74 74" viewBox="0 0 74 74" xmlns="http://www.w3.org/2000/svg"><g><g><path d="m68.5 42.06c0 1.83-.68 3.6-1.92 5.23-.41.54-1.05.87-1.74.87h-57.18c-1.19 0-2.15-.96-2.15-2.15v-13.88c0-7.99 8.91-13.77 23.77-13.77 14.29 0 24.44 4.94 29.98 12.87 5.72 2.82 9.24 6.63 9.24 10.83z" fill="#0f75bd"/></g><g opacity=".15"><path d="m68.5 42.06c0 1.84-.68 3.59-1.92 5.24-.41.54-1.06.87-1.74.87h-43.07c1.49-.45 2.97-1 4.46-1.64 12.9-5.56 21.09-16.21 20.05-25.23 5.62 2.23 9.96 5.64 12.96 9.93 5.75 2.82 9.26 6.64 9.26 10.83z"/></g><g><path d="m27.06 22.72v8.81h-17.2c.52-4.89 7.35-8.37 17.2-8.81z" fill="#d7dce2"/></g><g opacity=".5"><path d="m22.95 23.1-8.43 8.42h-4.31l7.07-7.07c1.66-.58 3.56-1.05 5.67-1.35z" fill="#fff"/></g><g opacity=".5"><path d="m27.06 22.72v.59l-8.22 8.22h-2.15l8.7-8.7c.54-.05 1.1-.09 1.67-.11z" fill="#fff"/></g><g opacity=".15"><path d="m27.06 22.72v8.81h-17.2c.09-.84.37-1.65.82-2.4h13.98v-6.24c.78-.08 1.58-.13 2.4-.17z"/></g><g><path d="m53.96 31.53h-22.91v-8.83c9.96.32 17.94 3.41 22.91 8.83z" fill="#d7dce2"/></g><g opacity=".5"><path d="m41.74 24.32-7.21 7.21h-3.49v-.82l7.23-7.23c1.2.23 2.36.51 3.47.84z" fill="#fff"/></g><g opacity=".5"><path d="m44.95 25.44-6.07 6.09h-2.16l6.68-6.68c.52.17 1.05.37 1.55.59z" fill="#fff"/></g><g opacity=".15"><path d="m53.96 31.53h-22.91v-2.4h20.3c.94.73 1.81 1.53 2.61 2.4z"/></g><g><path d="m27.06 32.03h-17.2c-.14 0-.28-.06-.37-.17s-.14-.25-.13-.39c.55-5.17 7.48-8.8 17.67-9.26.13-.01.27.04.37.14.1.09.15.22.15.36v8.81c.01.28-.21.51-.49.51zm-16.61-1h16.11v-7.78c-8.86.49-15.18 3.57-16.11 7.78z"/></g><g><path d="m53.96 32.03h-22.91c-.28 0-.5-.22-.5-.5v-8.83c0-.14.05-.27.15-.36s.23-.15.36-.14c10.13.33 18.17 3.44 23.26 8.99.13.15.17.36.09.54s-.26.3-.45.3zm-22.41-1h21.23c-4.84-4.74-12.14-7.43-21.23-7.81z"/></g><g><path d="m64.84 48.66h-57.18c-1.47 0-2.66-1.19-2.66-2.65v-13.88c0-8.67 9.53-14.27 24.27-14.27 13.65 0 24.4 4.61 30.31 12.98 6.07 3.02 9.42 7 9.42 11.23 0 1.9-.68 3.76-2.02 5.54-.51.65-1.31 1.05-2.14 1.05zm-35.57-29.8c-13.92 0-23.27 5.33-23.27 13.27v13.88c0 .91.74 1.65 1.65 1.65h57.19c.52 0 1.02-.25 1.34-.67 1.21-1.6 1.82-3.25 1.82-4.93 0-3.85-3.19-7.54-8.97-10.39-.08-.04-.14-.09-.19-.16-5.7-8.16-16.2-12.65-29.57-12.65z"/></g><g><path d="m8.04 32.13c-.08-2.07.67-4.2 2.06-5.79 1.38-1.61 3.22-2.75 5.13-3.58 1.94-.8 3.98-1.32 6.04-1.62 2.07-.28 4.15-.35 6.22-.27-2.07.13-4.13.29-6.16.65-2.02.38-4.03.88-5.9 1.7-1.89.78-3.65 1.89-5.04 3.38-1.4 1.47-2.22 3.46-2.35 5.53z"/></g><g><path d="m53.96 35.11c-3.67.09-7.35.16-11.02.19l-11.02.06-11.03-.06c-3.67-.03-7.35-.1-11.02-.19 3.67-.09 7.35-.16 11.02-.19l11.02-.06 11.02.06c3.68.03 7.35.1 11.03.19z"/></g><g><path d="m43.06 43.45c-2.44.19-4.89.24-7.33.25-2.44-.01-4.89-.05-7.33-.25 2.44-.2 4.89-.24 7.33-.25 2.44.01 4.89.05 7.33.25z"/></g><g><path d="m68.37 40.69c-.09.08-.17.14-.26.19-1.49.98-3.6.39-4.73-1.34-1.12-1.71-.84-3.88.65-4.86.11-.06.22-.13.33-.18 2.2 1.86 3.6 3.96 4.01 6.19z" fill="#d7dce2"/></g><g><path d="m66.51 41.86c-.25 0-.5-.03-.76-.08-1.11-.23-2.12-.94-2.79-1.96-1.27-1.94-.91-4.43.79-5.55.15-.09.27-.16.4-.22.17-.08.38-.05.53.07 2.35 1.98 3.75 4.16 4.18 6.47.03.17-.03.35-.16.47-.11.09-.22.18-.32.24-.55.37-1.2.56-1.87.56zm-2.21-6.75c-1.24.82-1.46 2.69-.5 4.16.52.79 1.31 1.35 2.15 1.52.67.14 1.33.02 1.86-.32-.43-1.88-1.61-3.68-3.51-5.36z"/></g><g><path d="m5.5 37.91h2.54v5.54h-2.54z" fill="#ef1d26"/></g><g><path d="m8.04 43.95h-2.54c-.28 0-.5-.22-.5-.5v-5.54c0-.28.22-.5.5-.5h2.54c.28 0 .5.22.5.5v5.54c0 .27-.22.5-.5.5zm-2.04-1h1.54v-4.54h-1.54z"/></g><g><g><path d="m47.77 48.16c0-4.13 3.35-7.48 7.48-7.48s7.48 3.35 7.48 7.48-3.35 7.48-7.48 7.48-7.48-3.35-7.48-7.48z" fill="#424244"/></g><g opacity=".15"><path d="m62.73 48.16c0 4.13-3.35 7.48-7.48 7.48-2.76 0-5.18-1.5-6.47-3.73 1.44.1 2.94-.04 4.45-.46 4.16-1.18 7.2-4.19 8.14-7.59.86 1.21 1.36 2.7 1.36 4.3z"/></g><g><path d="m49.57 48.16c-.21-1.49.39-3.1 1.49-4.19 1.09-1.1 2.7-1.69 4.19-1.49-.74.11-1.45.3-2.1.61-.64.32-1.24.72-1.74 1.23-1.01 1.01-1.64 2.36-1.84 3.84z"/></g><g><path d="m51.67 48.16c0-1.98 1.61-3.58 3.58-3.58 1.98 0 3.58 1.61 3.58 3.58 0 1.98-1.61 3.58-3.58 3.58-1.98.01-3.58-1.6-3.58-3.58z" fill="#d7dce2"/></g><g><path d="m57.07 47.72c.2.6-.02 1.31-.49 1.77-.46.46-1.18.69-1.77.49 1.17-.38 1.88-1.09 2.26-2.26z"/></g><g><path d="m55.25 52c-2.11 0-3.83-1.72-3.83-3.83s1.72-3.83 3.83-3.83 3.83 1.72 3.83 3.83-1.71 3.83-3.83 3.83zm0-7.17c-1.84 0-3.33 1.5-3.33 3.33 0 1.84 1.5 3.33 3.33 3.33 1.84 0 3.33-1.5 3.33-3.33.01-1.84-1.49-3.33-3.33-3.33z"/></g><g><path d="m55.25 56.14c-4.4 0-7.98-3.58-7.98-7.98s3.58-7.98 7.98-7.98 7.98 3.58 7.98 7.98-3.58 7.98-7.98 7.98zm0-14.96c-3.85 0-6.98 3.13-6.98 6.98s3.13 6.98 6.98 6.98 6.98-3.13 6.98-6.98-3.13-6.98-6.98-6.98z"/></g></g><g><g><path d="m11.27 48.16c0-4.13 3.35-7.48 7.48-7.48s7.48 3.35 7.48 7.48-3.35 7.48-7.48 7.48-7.48-3.35-7.48-7.48z" fill="#424244"/></g><g opacity=".15"><path d="m26.23 48.16c0 4.13-3.35 7.48-7.48 7.48-2.76 0-5.18-1.5-6.47-3.73 1.44.1 2.94-.04 4.45-.46 4.16-1.18 7.2-4.19 8.14-7.59.86 1.21 1.36 2.7 1.36 4.3z"/></g><g><path d="m13.07 48.16c-.21-1.49.39-3.1 1.49-4.19 1.09-1.1 2.7-1.69 4.19-1.49-.74.11-1.45.3-2.1.61-.64.32-1.24.72-1.74 1.23-1.02 1.01-1.65 2.36-1.84 3.84z"/></g><g><path d="m15.17 48.16c0-1.98 1.61-3.58 3.58-3.58 1.98 0 3.58 1.61 3.58 3.58 0 1.98-1.61 3.58-3.58 3.58-1.98.01-3.58-1.6-3.58-3.58z" fill="#d7dce2"/></g><g><path d="m20.57 47.72c.2.6-.02 1.31-.49 1.77-.46.46-1.18.69-1.77.49 1.16-.38 1.88-1.09 2.26-2.26z"/></g><g><path d="m18.75 52c-2.11 0-3.83-1.72-3.83-3.83s1.72-3.83 3.83-3.83 3.83 1.72 3.83 3.83-1.72 3.83-3.83 3.83zm0-7.17c-1.84 0-3.33 1.5-3.33 3.33 0 1.84 1.5 3.33 3.33 3.33 1.84 0 3.33-1.5 3.33-3.33 0-1.84-1.49-3.33-3.33-3.33z"/></g><g><path d="m18.75 56.14c-4.4 0-7.98-3.58-7.98-7.98s3.58-7.98 7.98-7.98 7.98 3.58 7.98 7.98-3.58 7.98-7.98 7.98zm0-14.96c-3.85 0-6.98 3.13-6.98 6.98s3.13 6.98 6.98 6.98 6.98-3.13 6.98-6.98-3.13-6.98-6.98-6.98z"/></g></g><g><path d="m8.12 48.16c.07-2.79 1.3-5.48 3.29-7.34 1.98-1.87 4.68-2.88 7.34-2.79-2.66.08-5.22 1.25-6.99 3.15-1.78 1.89-2.74 4.46-2.65 6.99.01.28-.21.51-.48.52-.28.01-.51-.21-.52-.48.01-.02.01-.04.01-.05z"/></g><g><path d="m44.65 48.16c.07-2.79 1.3-5.48 3.29-7.34 1.98-1.87 4.68-2.88 7.34-2.79-2.66.08-5.22 1.25-6.99 3.15-1.78 1.89-2.74 4.46-2.65 6.99.01.28-.21.51-.48.52-.28.01-.51-.21-.52-.48.01-.02.01-.04.01-.05z"/></g></g></svg>