<!-- icon666.com - MILLIONS OF FREE VECTOR ICONS --><svg viewBox="0 0 512 512" xmlns="http://www.w3.org/2000/svg"><path d="m256 66.523438-156.984375 135.476562v213.507812h313.96875v-213.507812zm0 0" fill="#fcd5a2"/><path d="m350.078125 215.328125c-.65625 0-1.308594-.070313-1.957031-.199219-.640625-.128906-1.261719-.320312-1.871094-.570312-.601562-.25-1.179688-.558594-1.730469-.917969-.539062-.371094-1.050781-.78125-1.519531-1.25-1.859375-1.851563-2.929688-4.429687-2.929688-7.070313 0-.652343.070313-1.300781.199219-1.949218.128907-.640625.320313-1.269532.570313-1.871094s.558594-1.179688.917968-1.730469c.359376-.539062.78125-1.050781 1.242188-1.519531.46875-.460938.976562-.878906 1.519531-1.242188.550781-.359374 1.128907-.667968 1.730469-.917968.609375-.25 1.226562-.441406 1.867188-.570313 1.292968-.261719 2.621093-.261719 3.910156 0 .640625.128907 1.273437.320313 1.871094.570313.601562.25 1.191406.558594 1.730468.917968.550782.363282 1.058594.78125 1.519532 1.242188.460937.46875.878906.980469 1.238281 1.519531.359375.550781.671875 1.128907.921875 1.730469s.4375 1.230469.570312 1.871094c.128906.648437.199219 1.296875.199219 1.949218 0 2.640626-1.070313 5.21875-2.929687 7.070313-.460938.46875-.972657.878906-1.519532 1.25-.542968.359375-1.132812.667969-1.730468.917969-.601563.25-1.230469.441406-1.871094.570312-.636719.128906-1.296875.199219-1.949219.199219zm0 0"/><path d="m161.929688 215.324219c-2.769532 0-5.523438-1.140625-7.5-3.378907-3.65625-4.136718-3.265626-10.457031.875-14.113281l94.074218-83.117187c3.78125-3.34375 9.460938-3.34375 13.242188 0l68.582031 60.59375c4.140625 3.65625 4.53125 9.976562.875 14.113281-3.65625 4.140625-9.976563 4.53125-14.113281.875l-61.964844-54.746094-87.453125 77.269531c-1.902344 1.679688-4.265625 2.503907-6.617187 2.503907zm0 0"/><path d="m412.984375 143.636719v-93.023438h-46.355469v53.5625l-110.628906-94.175781-218.671875 186.148438 27.316406 35.511718 191.355469-165.136718 191.355469 165.136718 27.316406-35.511718zm0 0" fill="#ff5050"/><path d="m267.296875 251.28125h101.851563v74.707031h-101.851563zm0 0" fill="#29d4fc"/><path d="m369.152344 335.988281h-101.855469c-5.523437 0-10-4.476562-10-10v-74.707031c0-5.523438 4.476563-10 10-10h101.851563c5.523437 0 10 4.476562 10 10v74.707031c.003906 5.523438-4.476563 10-9.996094 10zm-91.855469-20h81.851563v-54.707031h-81.851563zm0 0"/><path d="m10 423.722656h492v78.277344h-492zm0 0" fill="#29d4fc"/><path d="m221.648438 387.886719v-136.605469h-78.796876v135.472656" fill="#707487"/><path d="m502 368.101562h-.160156c-6.972656 13.335938-20.941406 22.441407-37.035156 22.441407-14.523438 0-27.316407-7.414063-34.796876-18.664063-1.558593-2.34375-4.152343-3.777344-6.964843-3.777344-2.808594 0-5.40625 1.433594-6.960938 3.777344-7.484375 11.25-20.273437 18.664063-34.800781 18.664063-14.523438 0-27.3125-7.414063-34.796875-18.664063-1.554687-2.34375-4.152344-3.777344-6.960937-3.777344-2.8125 0-5.410157 1.433594-6.964844 3.777344-7.480469 11.25-20.273438 18.664063-34.796875 18.664063-14.523438 0-27.316407-7.414063-34.796875-18.664063-1.558594-2.34375-4.152344-3.777344-6.964844-3.777344s-5.40625 1.433594-6.964844 3.777344c-7.480468 11.25-20.273437 18.664063-34.796875 18.664063-14.523437 0-27.316406-7.414063-34.796875-18.664063-1.558594-2.34375-4.152344-3.777344-6.964844-3.777344-2.808593 0-5.40625 1.433594-6.960937 3.777344-7.484375 11.25-20.273437 18.664063-34.796875 18.664063-14.527344 0-27.316406-7.414063-34.800781-18.664063-1.554688-2.34375-4.152344-3.777344-6.960938-3.777344-2.8125 0-5.40625 1.433594-6.964843 3.777344-7.480469 11.25-20.273438 18.664063-34.796876 18.664063-16.09375 0-30.0625-9.105469-37.035156-22.441407h-.160156v55.621094h492zm0 0" fill="#e4eaf8"/><path d="m502 358.101562h-.160156c-3.726563 0-7.140625 2.066407-8.863282 5.367188-5.503906 10.53125-16.300781 17.074219-28.171874 17.074219-10.660157 0-20.554688-5.308594-26.46875-14.203125-3.433594-5.160156-9.148438-8.238282-15.292969-8.238282-.019531 0-.039063 0-.058594 0v-134.265624l17.835937 15.394531c1.824219 1.574219 4.148438 2.429687 6.535157 2.429687.335937 0 .675781-.015625 1.011719-.050781 2.738281-.28125 5.238281-1.671875 6.914062-3.851563l27.316406-35.511718c3.25-4.222656 2.617188-10.253906-1.441406-13.710938l-58.171875-49.519531v-88.402344c0-5.523437-4.476563-10-10-10h-46.355469c-5.523437 0-10 4.476563-10 10v31.917969l-94.144531-80.144531c-3.738281-3.183594-9.230469-3.183594-12.964844 0l-218.675781 186.148437c-4.058594 3.453125-4.691406 9.488282-1.441406 13.710938l27.316406 35.511718c1.675781 2.179688 4.175781 3.570313 6.914062 3.851563 2.738282.277344 5.464844-.582031 7.546876-2.378906l17.835937-15.394531v134.265624c-.019531 0-.039063 0-.058594 0-6.144531 0-11.859375 3.078126-15.292969 8.238282-5.910156 8.894531-15.808593 14.203125-26.46875 14.203125-11.871093 0-22.664062-6.542969-28.171874-17.074219-1.722657-3.300781-5.136719-5.367188-8.859376-5.367188h-.164062c-5.523438 0-10 4.476563-10 10v133.898438c0 5.523438 4.476562 10 10 10h492c5.523438 0 10-4.476562 10-10v-133.898438c0-5.523437-4.476562-10-10-10zm-435.878906-140.925781-15.066406-19.582031 204.945312-174.460938 104.144531 88.65625c2.96875 2.527344 7.136719 3.097657 10.679688 1.464844 3.539062-1.636718 5.804687-5.179687 5.804687-9.078125v-43.5625h26.355469v83.023438c0 2.933593 1.289063 5.714843 3.519531 7.617187l54.441406 46.34375-15.0625 19.582032-183.347656-158.226563c-1.46875-1.265625-3.210937-2.035156-5.011718-2.3125-.503907-.078125-1.015626-.117187-1.523438-.117187-2.328125 0-4.65625.8125-6.53125 2.429687zm189.878906-137.441406 146.984375 126.84375v165.398437c-5.820313 5.453126-13.535156 8.566407-21.699219 8.566407-10.664062 0-20.558594-5.3125-26.472656-14.203125-3.429688-5.160156-9.148438-8.242188-15.289062-8.242188-6.144532 0-11.859376 3.082032-15.292969 8.242188-5.914063 8.894531-15.808594 14.203125-26.46875 14.203125-10.660157 0-20.558594-5.308594-26.472657-14.207031-3.433593-5.15625-9.148437-8.238282-15.289062-8.238282s-11.855469 3.082032-15.289062 8.242188c-2.425782 3.648437-5.523438 6.691406-9.0625 9.011718v-124.070312c0-5.523438-4.476563-10-10-10h-78.796876c-5.523437 0-10 4.476562-10 10v129.191406c-.707031.046875-1.417968.070313-2.132812.070313-8.167969 0-15.882812-3.113281-21.703125-8.566407v-165.398437zm-44.351562 300.703125c-9.65625-.785156-18.449219-5.929688-23.878907-14.097656-3.433593-5.160156-9.148437-8.238282-15.292969-8.238282-6.140624 0-11.855468 3.078126-15.289062 8.238282-1.273438 1.914062-2.726562 3.660156-4.335938 5.226562v-110.285156h58.796876zm-191.648438 12.414062c8.015625 4.945313 17.378906 7.691407 27.195312 7.691407 16.578126 0 32.015626-7.871094 41.761719-21.175781 9.746094 13.304687 25.183594 21.175781 41.761719 21.175781 16.574219 0 32.011719-7.871094 41.757812-21.175781 9.746094 13.304687 25.183594 21.175781 41.761719 21.175781s32.019531-7.875 41.761719-21.175781c9.746094 13.304687 25.183594 21.175781 41.761719 21.175781s32.015625-7.871094 41.761719-21.175781c9.746093 13.304687 25.1875 21.175781 41.761718 21.175781 16.578125 0 32.015625-7.871094 41.761719-21.175781 9.746094 13.304687 25.183594 21.175781 41.761719 21.175781 9.816406 0 19.179687-2.746094 27.195312-7.691407v20.871094h-472.003906zm472 99.148438h-472v-58.277344h472zm0 0"/><path d="m307.328125 467.667969c-.648437 0-1.308594-.058594-1.957031-.1875-.640625-.128907-1.261719-.332031-1.871094-.582031-.601562-.25-1.179688-.558594-1.730469-.917969-.539062-.359375-1.050781-.78125-1.519531-1.242188-.460938-.457031-.871094-.96875-1.238281-1.519531-.363281-.539062-.671875-1.117188-.921875-1.730469-.25-.597656-.441406-1.230469-.570313-1.867187-.128906-.640625-.1875-1.300782-.1875-1.953125 0-.648438.058594-1.308594.1875-1.949219.128907-.640625.320313-1.269531.570313-1.867188.25-.613281.558594-1.191406.921875-1.730468.367187-.550782.777343-1.058594 1.238281-1.519532.46875-.460937.980469-.882812 1.519531-1.242187.550781-.359375 1.128907-.667969 1.730469-.917969.609375-.25 1.230469-.453125 1.871094-.570312 1.289062-.261719 2.617187-.261719 3.910156 0 .640625.117187 1.269531.320312 1.867188.570312.609374.25 1.191406.558594 1.730468.917969.550782.359375 1.058594.78125 1.519532 1.242187.460937.457032.882812.96875 1.242187 1.519532.359375.539062.667969 1.117187.917969 1.730468.25.597657.441406 1.226563.570312 1.867188s.199219 1.300781.199219 1.949219c0 .652343-.070313 1.3125-.199219 1.953125-.128906.636718-.320312 1.269531-.570312 1.867187-.25.613281-.558594 1.191407-.917969 1.730469-.359375.550781-.78125 1.0625-1.242187 1.519531-.460938.460938-.96875.882813-1.519532 1.242188-.539062.359375-1.128906.667969-1.730468.917969-.597657.25-1.226563.453124-1.867188.582031-.640625.128906-1.300781.1875-1.953125.1875zm0 0"/><path d="m267.324219 467.667969h-201.65625c-5.523438 0-10-4.476563-10-10 0-5.519531 4.476562-10 10-10h201.65625c5.523437 0 10 4.480469 10 10 0 5.523437-4.476563 10-10 10zm0 0"/><path d="m453.769531 483.289062h-86.667969c-5.523437 0-10-4.476562-10-10 0-5.523437 4.476563-10 10-10h86.667969c5.519531 0 10 4.476563 10 10 0 5.523438-4.480469 10-10 10zm0 0"/></svg>